<svg xmlns="http://www.w3.org/2000/svg" xmlns:xlink="http://www.w3.org/1999/xlink" width="500" zoomAndPan="magnify" viewBox="0 0 375 374.999991" height="500" preserveAspectRatio="xMidYMid meet" version="1.0"><path fill="#000000" d="M 188.25 281.648438 C 148.335938 281.648438 117.324219 270.78125 95.191406 249.042969 C 73.0625 227.292969 61.996094 196.460938 61.996094 156.550781 L 61.996094 7.660156 L 137.992188 7.660156 L 137.992188 154.242188 C 137.992188 197.230469 154.996094 218.71875 189.007812 218.71875 C 222.777344 218.71875 239.664062 197.230469 239.664062 154.242188 L 239.664062 7.660156 L 314.472656 7.660156 L 314.472656 156.550781 C 314.472656 196.460938 303.410156 227.292969 281.277344 249.042969 C 259.160156 270.78125 228.152344 281.648438 188.25 281.648438 Z M 188.25 281.648438 " fill-opacity="1" fill-rule="nonzero"/><path fill="#000000" d="M 72.480469 369.972656 C 69.890625 369.972656 67.398438 369.566406 65.019531 368.734375 C 62.65625 367.890625 60.824219 366.792969 59.53125 365.441406 L 60.964844 362.597656 C 62.238281 363.859375 63.921875 364.878906 66.003906 365.667969 C 68.101562 366.441406 70.265625 366.820312 72.480469 366.820312 C 75.59375 366.820312 77.929688 366.25 79.492188 365.105469 C 81.070312 363.964844 81.855469 362.476562 81.855469 360.65625 C 81.855469 359.269531 81.421875 358.164062 80.5625 357.332031 C 79.71875 356.488281 78.683594 355.839844 77.464844 355.390625 C 76.238281 354.9375 74.535156 354.453125 72.339844 353.925781 C 69.707031 353.269531 67.617188 352.628906 66.0625 352.011719 C 64.5 351.390625 63.160156 350.457031 62.035156 349.195312 C 60.921875 347.941406 60.375 346.230469 60.375 344.070312 C 60.375 342.3125 60.832031 340.707031 61.753906 339.257812 C 62.691406 337.8125 64.117188 336.660156 66.035156 335.792969 C 67.960938 334.933594 70.371094 334.496094 73.242188 334.496094 C 75.226562 334.496094 77.167969 334.773438 79.070312 335.3125 C 80.984375 335.863281 82.632812 336.625 84.027344 337.59375 L 82.785156 340.523438 C 81.324219 339.566406 79.757812 338.855469 78.113281 338.382812 C 76.457031 337.898438 74.832031 337.652344 73.242188 337.652344 C 70.179688 337.652344 67.871094 338.242188 66.316406 339.425781 C 64.773438 340.59375 64.007812 342.101562 64.007812 343.957031 C 64.007812 345.351562 64.429688 346.476562 65.273438 347.335938 C 66.132812 348.179688 67.203125 348.828125 68.484375 349.28125 C 69.757812 349.714844 71.476562 350.203125 73.636719 350.742188 C 76.183594 351.363281 78.253906 351.984375 79.832031 352.601562 C 81.40625 353.222656 82.738281 354.164062 83.828125 355.417969 C 84.933594 356.65625 85.488281 358.339844 85.488281 360.457031 C 85.488281 362.203125 85.011719 363.800781 84.054688 365.246094 C 83.109375 366.695312 81.660156 367.847656 79.6875 368.707031 C 77.734375 369.550781 75.332031 369.972656 72.480469 369.972656 Z M 72.480469 369.972656 " fill-opacity="1" fill-rule="nonzero"/><path fill="#000000" d="M 118.460938 334.808594 C 122.910156 334.808594 126.386719 335.871094 128.90625 337.988281 C 131.441406 340.113281 132.707031 343.027344 132.707031 346.746094 C 132.707031 350.460938 131.441406 353.382812 128.90625 355.503906 C 126.386719 357.605469 122.910156 358.65625 118.460938 358.65625 L 109.113281 358.65625 L 109.113281 369.664062 L 105.421875 369.664062 L 105.421875 334.808594 Z M 118.375 355.417969 C 121.824219 355.417969 124.464844 354.671875 126.289062 353.164062 C 128.101562 351.644531 129.019531 349.503906 129.019531 346.746094 C 129.019531 343.929688 128.101562 341.777344 126.289062 340.269531 C 124.464844 338.75 121.824219 337.988281 118.375 337.988281 L 109.113281 337.988281 L 109.113281 355.417969 Z M 118.375 355.417969 " fill-opacity="1" fill-rule="nonzero"/><path fill="#000000" d="M 153.09375 334.808594 L 156.785156 334.808594 L 156.785156 366.484375 L 176.296875 366.484375 L 176.296875 369.664062 L 153.09375 369.664062 Z M 153.09375 334.808594 " fill-opacity="1" fill-rule="nonzero"/><path fill="#000000" d="M 216.191406 360.34375 L 196.765625 360.34375 L 192.597656 369.664062 L 188.769531 369.664062 L 204.703125 334.808594 L 208.335938 334.808594 L 224.273438 369.664062 L 220.386719 369.664062 Z M 214.839844 357.359375 L 206.476562 338.636719 L 198.117188 357.359375 Z M 214.839844 357.359375 " fill-opacity="1" fill-rule="nonzero"/><path fill="#000000" d="M 251.570312 369.972656 C 248.980469 369.972656 246.488281 369.566406 244.109375 368.734375 C 241.746094 367.890625 239.914062 366.792969 238.621094 365.441406 L 240.054688 362.597656 C 241.328125 363.859375 243.011719 364.878906 245.09375 365.667969 C 247.191406 366.441406 249.355469 366.820312 251.570312 366.820312 C 254.683594 366.820312 257.019531 366.25 258.582031 365.105469 C 260.160156 363.964844 260.949219 362.476562 260.949219 360.65625 C 260.949219 359.269531 260.511719 358.164062 259.652344 357.332031 C 258.808594 356.488281 257.773438 355.839844 256.554688 355.390625 C 255.332031 354.9375 253.625 354.453125 251.429688 353.925781 C 248.796875 353.269531 246.707031 352.628906 245.152344 352.011719 C 243.589844 351.390625 242.25 350.457031 241.125 349.195312 C 240.011719 347.941406 239.464844 346.230469 239.464844 344.070312 C 239.464844 342.3125 239.921875 340.707031 240.84375 339.257812 C 241.78125 337.8125 243.207031 336.660156 245.125 335.792969 C 247.050781 334.933594 249.460938 334.496094 252.332031 334.496094 C 254.316406 334.496094 256.257812 334.773438 258.160156 335.3125 C 260.074219 335.863281 261.722656 336.625 263.117188 337.59375 L 261.875 340.523438 C 260.414062 339.566406 258.851562 338.855469 257.203125 338.382812 C 255.546875 337.898438 253.921875 337.652344 252.332031 337.652344 C 249.269531 337.652344 246.960938 338.242188 245.40625 339.425781 C 243.863281 340.59375 243.097656 342.101562 243.097656 343.957031 C 243.097656 345.351562 243.519531 346.476562 244.363281 347.335938 C 245.222656 348.179688 246.292969 348.828125 247.574219 349.28125 C 248.847656 349.714844 250.566406 350.203125 252.726562 350.742188 C 255.273438 351.363281 257.34375 351.984375 258.921875 352.601562 C 260.496094 353.222656 261.828125 354.164062 262.917969 355.417969 C 264.023438 356.65625 264.578125 358.339844 264.578125 360.457031 C 264.578125 362.203125 264.101562 363.800781 263.144531 365.246094 C 262.199219 366.695312 260.75 367.847656 258.777344 368.707031 C 256.824219 369.550781 254.421875 369.972656 251.570312 369.972656 Z M 251.570312 369.972656 " fill-opacity="1" fill-rule="nonzero"/><path fill="#000000" d="M 313.652344 334.808594 L 313.652344 369.664062 L 309.992188 369.664062 L 309.992188 353.585938 L 288.199219 353.585938 L 288.199219 369.664062 L 284.511719 369.664062 L 284.511719 334.808594 L 288.199219 334.808594 L 288.199219 350.351562 L 309.992188 350.351562 L 309.992188 334.808594 Z M 313.652344 334.808594 " fill-opacity="1" fill-rule="nonzero"/></svg>